<?xml version="1.0" encoding="UTF-8"?>
<svg xmlns="http://www.w3.org/2000/svg" xmlns:xlink="http://www.w3.org/1999/xlink" width="130px" height="81px" viewBox="0 0 130 81" version="1.1">
<g id="surface1">
<path style=" stroke:none;fill-rule:nonzero;fill:rgb(94.117647%,94.117647%,94.117647%);fill-opacity:1;" d="M 12.257812 78.492188 C 12.832031 79.269531 13.546875 79.933594 14.359375 80.449219 C 14.535156 80.558594 14.710938 80.664062 14.894531 80.757812 L 19.152344 80.757812 C 19.101562 80.65625 19.050781 80.554688 19.003906 80.449219 C 16.296875 74.730469 17.53125 67.917969 22.074219 63.515625 C 19.5 64.3125 17.121094 65.863281 15.5625 68.0625 C 14.804688 69.136719 14.269531 70.347656 13.980469 71.625 C 13.722656 69.066406 14.132812 66.484375 15.167969 64.128906 C 13.074219 65.832031 11.449219 68.160156 10.828125 70.785156 C 10.207031 73.410156 10.65625 76.324219 12.257812 78.492188 Z M 12.257812 78.492188 "/>
<path style=" stroke:none;fill-rule:nonzero;fill:rgb(100%,100%,100%);fill-opacity:1;" d="M 129.296875 43.519531 L 100.328125 43.519531 C 99.957031 43.519531 99.65625 43.214844 99.65625 42.84375 L 99.65625 24.914062 C 99.65625 24.539062 99.957031 24.238281 100.328125 24.238281 L 129.296875 24.238281 C 129.667969 24.238281 129.96875 24.539062 129.96875 24.914062 L 129.96875 42.84375 C 129.96875 43.214844 129.667969 43.519531 129.296875 43.519531 Z M 129.296875 43.519531 "/>
<path style=" stroke:none;fill-rule:nonzero;fill:rgb(24.705882%,23.921569%,33.72549%);fill-opacity:1;" d="M 129.296875 43.519531 L 100.328125 43.519531 C 99.957031 43.519531 99.65625 43.214844 99.65625 42.84375 L 99.65625 24.914062 C 99.65625 24.539062 99.957031 24.238281 100.328125 24.238281 L 129.296875 24.238281 C 129.667969 24.238281 129.96875 24.539062 129.96875 24.914062 L 129.96875 42.84375 C 129.96875 43.214844 129.667969 43.519531 129.296875 43.519531 Z M 100.328125 24.507812 C 100.105469 24.507812 99.925781 24.6875 99.925781 24.914062 L 99.925781 42.84375 C 99.925781 43.066406 100.105469 43.25 100.328125 43.25 L 129.296875 43.25 C 129.519531 43.25 129.699219 43.066406 129.699219 42.84375 L 129.699219 24.914062 C 129.699219 24.6875 129.519531 24.507812 129.296875 24.507812 Z M 100.328125 24.507812 "/>
<path style=" stroke:none;fill-rule:nonzero;fill:rgb(80%,80%,80%);fill-opacity:1;" d="M 123.570312 30.226562 L 106.054688 30.226562 C 105.71875 30.226562 105.449219 29.957031 105.449219 29.621094 C 105.449219 29.285156 105.71875 29.011719 106.054688 29.011719 L 123.570312 29.011719 C 123.902344 29.011719 124.175781 29.285156 124.175781 29.621094 C 124.175781 29.957031 123.902344 30.226562 123.570312 30.226562 Z M 123.570312 30.226562 "/>
<path style=" stroke:none;fill-rule:nonzero;fill:rgb(80%,80%,80%);fill-opacity:1;" d="M 123.570312 34.40625 L 106.054688 34.40625 C 105.71875 34.40625 105.449219 34.136719 105.449219 33.800781 C 105.449219 33.464844 105.71875 33.191406 106.054688 33.191406 L 123.570312 33.191406 C 123.902344 33.191406 124.175781 33.464844 124.175781 33.800781 C 124.175781 34.136719 123.902344 34.40625 123.570312 34.40625 Z M 123.570312 34.40625 "/>
<path style=" stroke:none;fill-rule:nonzero;fill:rgb(96.078431%,0%,34.117647%);fill-opacity:1;" d="M 124.175781 38.863281 C 124.175781 40.0625 123.207031 41.035156 122.007812 41.035156 C 120.8125 41.035156 119.84375 40.0625 119.84375 38.863281 C 119.84375 37.667969 120.8125 36.695312 122.007812 36.695312 C 123.207031 36.695312 124.175781 37.667969 124.175781 38.863281 Z M 124.175781 38.863281 "/>
<path style=" stroke:none;fill-rule:nonzero;fill:rgb(100%,100%,100%);fill-opacity:1;" d="M 122.066406 37.84375 L 122.066406 37.636719 L 122.128906 37.636719 L 122.128906 37.84375 C 122.214844 37.847656 122.300781 37.867188 122.378906 37.90625 C 122.4375 37.929688 122.484375 37.972656 122.523438 38.023438 C 122.554688 38.070312 122.574219 38.128906 122.574219 38.1875 C 122.574219 38.230469 122.558594 38.269531 122.535156 38.304688 C 122.507812 38.332031 122.472656 38.351562 122.433594 38.351562 C 122.40625 38.351562 122.378906 38.339844 122.359375 38.320312 C 122.339844 38.300781 122.328125 38.269531 122.328125 38.242188 C 122.328125 38.222656 122.332031 38.203125 122.339844 38.183594 L 122.363281 38.132812 C 122.371094 38.109375 122.378906 38.085938 122.375 38.0625 C 122.378906 38.027344 122.367188 37.992188 122.34375 37.964844 C 122.320312 37.933594 122.289062 37.910156 122.25 37.898438 C 122.210938 37.886719 122.171875 37.878906 122.128906 37.875 L 122.128906 38.617188 L 122.144531 38.625 C 122.269531 38.695312 122.386719 38.78125 122.488281 38.886719 C 122.53125 38.9375 122.566406 38.996094 122.589844 39.0625 C 122.613281 39.125 122.628906 39.191406 122.628906 39.257812 C 122.628906 39.34375 122.605469 39.429688 122.5625 39.503906 C 122.519531 39.574219 122.457031 39.636719 122.382812 39.671875 C 122.300781 39.710938 122.21875 39.738281 122.128906 39.746094 L 122.128906 39.96875 L 122.066406 39.96875 L 122.066406 39.75 C 121.980469 39.75 121.890625 39.730469 121.808594 39.699219 C 121.730469 39.667969 121.65625 39.617188 121.601562 39.546875 C 121.554688 39.488281 121.527344 39.410156 121.527344 39.335938 C 121.527344 39.28125 121.542969 39.226562 121.574219 39.183594 C 121.601562 39.144531 121.644531 39.121094 121.691406 39.121094 C 121.71875 39.121094 121.746094 39.128906 121.765625 39.148438 C 121.785156 39.167969 121.792969 39.195312 121.792969 39.222656 C 121.789062 39.265625 121.773438 39.304688 121.742188 39.335938 C 121.730469 39.355469 121.714844 39.378906 121.707031 39.398438 C 121.699219 39.417969 121.695312 39.433594 121.695312 39.453125 C 121.695312 39.503906 121.714844 39.550781 121.746094 39.589844 C 121.777344 39.632812 121.824219 39.667969 121.875 39.6875 C 121.933594 39.710938 121.996094 39.71875 122.058594 39.71875 L 122.066406 39.71875 L 122.066406 38.832031 L 121.992188 38.785156 C 121.917969 38.746094 121.863281 38.707031 121.824219 38.679688 C 121.785156 38.652344 121.75 38.621094 121.71875 38.589844 C 121.640625 38.503906 121.597656 38.394531 121.597656 38.28125 C 121.597656 38.210938 121.617188 38.140625 121.648438 38.078125 C 121.683594 38.015625 121.734375 37.964844 121.792969 37.925781 C 121.875 37.875 121.972656 37.847656 122.066406 37.84375 Z M 122.066406 37.875 C 122.015625 37.875 121.964844 37.886719 121.914062 37.90625 C 121.867188 37.929688 121.828125 37.96875 121.800781 38.015625 C 121.773438 38.070312 121.757812 38.128906 121.757812 38.1875 C 121.757812 38.257812 121.78125 38.328125 121.820312 38.390625 C 121.84375 38.421875 121.871094 38.449219 121.902344 38.472656 C 121.949219 38.511719 122 38.542969 122.054688 38.574219 L 122.066406 38.582031 Z M 122.128906 39.714844 C 122.164062 39.714844 122.199219 39.707031 122.230469 39.695312 C 122.257812 39.683594 122.285156 39.667969 122.304688 39.652344 C 122.347656 39.617188 122.378906 39.570312 122.402344 39.519531 C 122.425781 39.460938 122.4375 39.402344 122.4375 39.339844 C 122.425781 39.140625 122.308594 38.960938 122.128906 38.871094 Z M 122.128906 39.714844 "/>
<path style=" stroke:none;fill-rule:nonzero;fill:rgb(100%,100%,100%);fill-opacity:1;" d="M 109.5625 31.515625 L 80.597656 31.515625 C 80.222656 31.515625 79.921875 31.214844 79.921875 30.839844 L 79.921875 12.910156 C 79.921875 12.539062 80.222656 12.234375 80.597656 12.234375 L 109.5625 12.234375 C 109.933594 12.234375 110.234375 12.539062 110.238281 12.910156 L 110.238281 30.839844 C 110.234375 31.214844 109.933594 31.515625 109.5625 31.515625 Z M 109.5625 31.515625 "/>
<path style=" stroke:none;fill-rule:nonzero;fill:rgb(24.705882%,23.921569%,33.72549%);fill-opacity:1;" d="M 109.5625 31.515625 L 80.597656 31.515625 C 80.222656 31.515625 79.921875 31.214844 79.921875 30.839844 L 79.921875 12.910156 C 79.921875 12.539062 80.222656 12.234375 80.597656 12.234375 L 109.5625 12.234375 C 109.933594 12.234375 110.234375 12.539062 110.238281 12.910156 L 110.238281 30.839844 C 110.234375 31.214844 109.933594 31.515625 109.5625 31.515625 Z M 80.597656 12.503906 C 80.375 12.503906 80.191406 12.6875 80.191406 12.910156 L 80.191406 30.839844 C 80.191406 31.066406 80.375 31.246094 80.597656 31.246094 L 109.5625 31.246094 C 109.785156 31.246094 109.964844 31.066406 109.96875 30.839844 L 109.96875 12.910156 C 109.964844 12.6875 109.785156 12.503906 109.5625 12.503906 Z M 80.597656 12.503906 "/>
<path style=" stroke:none;fill-rule:nonzero;fill:rgb(80%,80%,80%);fill-opacity:1;" d="M 103.835938 18.222656 L 86.320312 18.222656 C 85.988281 18.222656 85.714844 17.953125 85.714844 17.617188 C 85.714844 17.28125 85.988281 17.011719 86.320312 17.011719 L 103.835938 17.011719 C 104.171875 17.011719 104.441406 17.28125 104.441406 17.617188 C 104.441406 17.953125 104.171875 18.222656 103.835938 18.222656 Z M 103.835938 18.222656 "/>
<path style=" stroke:none;fill-rule:nonzero;fill:rgb(80%,80%,80%);fill-opacity:1;" d="M 103.835938 22.402344 L 86.320312 22.402344 C 85.988281 22.402344 85.714844 22.132812 85.714844 21.796875 C 85.714844 21.460938 85.988281 21.191406 86.320312 21.191406 L 103.835938 21.191406 C 104.171875 21.191406 104.441406 21.460938 104.441406 21.796875 C 104.441406 22.132812 104.171875 22.402344 103.835938 22.402344 Z M 103.835938 22.402344 "/>
<path style=" stroke:none;fill-rule:nonzero;fill:rgb(96.078431%,0%,34.117647%);fill-opacity:1;" d="M 104.441406 26.863281 C 104.441406 28.058594 103.472656 29.03125 102.277344 29.03125 C 101.078125 29.03125 100.109375 28.058594 100.109375 26.863281 C 100.109375 25.664062 101.078125 24.695312 102.277344 24.695312 C 103.472656 24.695312 104.441406 25.664062 104.441406 26.863281 Z M 104.441406 26.863281 "/>
<path style=" stroke:none;fill-rule:nonzero;fill:rgb(100%,100%,100%);fill-opacity:1;" d="M 102.335938 25.839844 L 102.335938 25.632812 L 102.398438 25.632812 L 102.398438 25.839844 C 102.484375 25.84375 102.570312 25.867188 102.648438 25.902344 C 102.703125 25.929688 102.753906 25.96875 102.789062 26.019531 C 102.824219 26.066406 102.839844 26.125 102.839844 26.183594 C 102.84375 26.226562 102.828125 26.265625 102.800781 26.300781 C 102.777344 26.332031 102.742188 26.347656 102.703125 26.347656 C 102.675781 26.347656 102.648438 26.335938 102.625 26.316406 C 102.605469 26.296875 102.59375 26.269531 102.59375 26.238281 C 102.59375 26.21875 102.597656 26.199219 102.609375 26.179688 L 102.632812 26.128906 C 102.640625 26.105469 102.644531 26.085938 102.644531 26.0625 C 102.644531 26.023438 102.632812 25.988281 102.613281 25.960938 C 102.585938 25.929688 102.554688 25.910156 102.519531 25.898438 C 102.480469 25.882812 102.4375 25.875 102.398438 25.871094 L 102.398438 26.617188 L 102.410156 26.625 C 102.539062 26.691406 102.65625 26.777344 102.753906 26.882812 C 102.796875 26.9375 102.832031 26.996094 102.859375 27.058594 C 102.882812 27.121094 102.894531 27.1875 102.894531 27.253906 C 102.898438 27.339844 102.875 27.425781 102.832031 27.5 C 102.789062 27.574219 102.726562 27.632812 102.648438 27.671875 C 102.570312 27.710938 102.484375 27.734375 102.398438 27.742188 L 102.398438 27.964844 L 102.335938 27.964844 L 102.335938 27.746094 C 102.246094 27.746094 102.160156 27.730469 102.078125 27.695312 C 101.996094 27.664062 101.925781 27.613281 101.871094 27.546875 C 101.820312 27.484375 101.796875 27.410156 101.796875 27.332031 C 101.792969 27.277344 101.808594 27.222656 101.84375 27.179688 C 101.867188 27.140625 101.914062 27.117188 101.957031 27.117188 C 101.984375 27.117188 102.011719 27.128906 102.03125 27.148438 C 102.050781 27.167969 102.0625 27.195312 102.0625 27.222656 C 102.058594 27.261719 102.039062 27.300781 102.011719 27.332031 C 101.996094 27.351562 101.984375 27.375 101.972656 27.394531 C 101.96875 27.414062 101.964844 27.433594 101.964844 27.449219 C 101.964844 27.5 101.980469 27.546875 102.011719 27.585938 C 102.046875 27.628906 102.089844 27.664062 102.140625 27.683594 C 102.199219 27.707031 102.261719 27.71875 102.324219 27.714844 L 102.335938 27.714844 L 102.335938 26.828125 L 102.257812 26.785156 C 102.183594 26.742188 102.128906 26.707031 102.089844 26.679688 C 102.054688 26.652344 102.019531 26.621094 101.988281 26.585938 C 101.910156 26.503906 101.867188 26.390625 101.867188 26.277344 C 101.867188 26.207031 101.882812 26.136719 101.917969 26.074219 C 101.953125 26.011719 102 25.960938 102.058594 25.921875 C 102.144531 25.875 102.238281 25.84375 102.335938 25.839844 Z M 102.335938 25.871094 C 102.285156 25.871094 102.230469 25.882812 102.183594 25.90625 C 102.136719 25.929688 102.09375 25.96875 102.070312 26.015625 C 102.039062 26.066406 102.027344 26.125 102.027344 26.183594 C 102.027344 26.257812 102.046875 26.328125 102.089844 26.386719 C 102.113281 26.417969 102.140625 26.445312 102.167969 26.472656 C 102.21875 26.507812 102.269531 26.542969 102.324219 26.570312 L 102.335938 26.582031 Z M 102.398438 27.714844 C 102.433594 27.710938 102.464844 27.703125 102.5 27.691406 C 102.527344 27.679688 102.550781 27.667969 102.574219 27.648438 C 102.617188 27.613281 102.648438 27.566406 102.667969 27.515625 C 102.691406 27.460938 102.703125 27.398438 102.703125 27.335938 C 102.691406 27.136719 102.574219 26.957031 102.398438 26.867188 Z M 102.398438 27.714844 "/>
<path style=" stroke:none;fill-rule:nonzero;fill:rgb(100%,71.372549%,71.372549%);fill-opacity:1;" d="M 49.515625 28.839844 C 49.003906 28.804688 48.503906 28.996094 48.148438 29.363281 C 47.789062 29.730469 47.617188 30.238281 47.667969 30.746094 L 42.101562 33.359375 L 44.828125 35.03125 L 49.695312 32.292969 C 50.566406 32.144531 51.183594 31.367188 51.140625 30.484375 C 51.09375 29.605469 50.394531 28.898438 49.515625 28.839844 Z M 49.515625 28.839844 "/>
<path style=" stroke:none;fill-rule:nonzero;fill:rgb(100%,71.372549%,71.372549%);fill-opacity:1;" d="M 26.472656 79.105469 L 28.394531 79.105469 L 29.308594 71.683594 L 26.472656 71.683594 Z M 26.472656 79.105469 "/>
<path style=" stroke:none;fill-rule:nonzero;fill:rgb(18.431373%,18.039216%,25.490196%);fill-opacity:1;" d="M 25.980469 78.476562 L 29.769531 78.476562 C 31.101562 78.476562 32.183594 79.558594 32.183594 80.894531 L 32.183594 80.972656 L 25.980469 80.972656 Z M 25.980469 78.476562 "/>
<path style=" stroke:none;fill-rule:nonzero;fill:rgb(100%,71.372549%,71.372549%);fill-opacity:1;" d="M 36.285156 79.105469 L 38.207031 79.105469 L 39.125 71.683594 L 36.285156 71.683594 Z M 36.285156 79.105469 "/>
<path style=" stroke:none;fill-rule:nonzero;fill:rgb(18.431373%,18.039216%,25.490196%);fill-opacity:1;" d="M 35.792969 78.476562 L 39.582031 78.476562 C 40.914062 78.476562 41.996094 79.558594 41.996094 80.894531 L 41.996094 80.972656 L 35.792969 80.972656 Z M 35.792969 78.476562 "/>
<path style=" stroke:none;fill-rule:nonzero;fill:rgb(18.431373%,18.039216%,25.490196%);fill-opacity:1;" d="M 37.570312 40.601562 L 38.546875 42.707031 L 40.304688 61.511719 L 38.9375 77.679688 L 35.738281 77.679688 L 31.964844 52.199219 L 30.191406 77.089844 L 25.875 76.917969 L 25.042969 43.167969 Z M 37.570312 40.601562 "/>
<path style=" stroke:none;fill-rule:nonzero;fill:rgb(89.411765%,89.411765%,89.411765%);fill-opacity:1;" d="M 22.015625 23.246094 L 26.0625 21.597656 L 31.773438 21.917969 L 36.851562 23.769531 L 38.546875 42.707031 C 34.128906 45.121094 29.652344 45.777344 25.101562 44.050781 L 20.875 31.71875 Z M 22.015625 23.246094 "/>
<path style=" stroke:none;fill-rule:nonzero;fill:rgb(89.411765%,89.411765%,89.411765%);fill-opacity:1;" d="M 35.273438 24.269531 L 37.066406 23.769531 C 37.066406 23.769531 38.425781 22.886719 38.875 25.515625 C 39.320312 28.140625 41.621094 32.226562 41.621094 32.226562 L 45.554688 30.128906 L 47.378906 34.113281 L 41.160156 37.878906 L 34.613281 31.28125 Z M 35.273438 24.269531 "/>
<path style=" stroke:none;fill-rule:nonzero;fill:rgb(100%,71.372549%,71.372549%);fill-opacity:1;" d="M 25.421875 18.089844 C 24.503906 16.007812 25.449219 13.574219 27.527344 12.65625 C 29.609375 11.738281 32.039062 12.683594 32.957031 14.765625 L 32.980469 14.820312 C 33.882812 16.910156 32.921875 19.335938 30.835938 20.238281 C 28.746094 21.144531 26.320312 20.179688 25.417969 18.089844 Z M 25.421875 18.089844 "/>
<path style=" stroke:none;fill-rule:nonzero;fill:rgb(18.431373%,18.039216%,25.490196%);fill-opacity:1;" d="M 31.011719 14.320312 C 31.867188 14.472656 33.195312 15.011719 33.929688 14.378906 C 33.566406 13.957031 33.109375 13.621094 32.59375 13.402344 C 32.492188 13.371094 32.398438 13.316406 32.316406 13.246094 C 32.066406 12.992188 32.261719 12.558594 32.144531 12.214844 C 32.035156 11.960938 31.808594 11.773438 31.535156 11.710938 C 31.28125 11.636719 31.015625 11.621094 30.761719 11.53125 C 30.171875 11.308594 29.75 10.667969 29.140625 10.496094 C 28.609375 10.339844 28.078125 10.578125 27.621094 10.859375 C 27.164062 11.136719 26.710938 11.464844 26.175781 11.519531 C 25.773438 11.554688 25.523438 12.214844 25.121094 12.234375 C 24.277344 12.273438 24.324219 11.71875 24.265625 12.601562 C 24.226562 13.132812 23.472656 14.179688 23.488281 14.714844 C 23.5 15.0625 23.4375 15.40625 23.449219 15.757812 C 23.46875 16.421875 23.738281 17.058594 24.199219 17.539062 C 24.582031 17.933594 25.078125 18.199219 25.402344 18.648438 C 25.570312 18.886719 25.683594 19.167969 25.878906 19.382812 C 26.074219 19.597656 26.40625 19.726562 26.625 19.574219 C 26.839844 19.417969 26.84375 19.085938 26.953125 18.832031 C 27.089844 18.511719 27.414062 18.316406 27.757812 18.34375 C 28.117188 18.386719 28.414062 18.632812 28.53125 18.972656 C 28.429688 18.414062 28.160156 17.886719 28.058594 17.328125 C 27.957031 16.765625 28.089844 16.097656 28.574219 15.875 C 28.78125 15.78125 29.058594 15.753906 29.144531 15.53125 C 29.195312 15.398438 29.148438 15.238281 29.167969 15.09375 C 29.273438 14.382812 30.453125 14.207031 31.011719 14.320312 Z M 31.011719 14.320312 "/>
<path style=" stroke:none;fill-rule:nonzero;fill:rgb(100%,71.372549%,71.372549%);fill-opacity:1;" d="M 25.585938 43.832031 C 25.511719 43.324219 25.214844 42.878906 24.777344 42.609375 C 24.34375 42.339844 23.808594 42.28125 23.324219 42.441406 L 19.566406 37.570312 L 18.53125 40.59375 L 22.253906 44.757812 C 22.589844 45.574219 23.480469 46.011719 24.332031 45.777344 C 25.179688 45.539062 25.71875 44.707031 25.585938 43.832031 Z M 25.585938 43.832031 "/>
<path style=" stroke:none;fill-rule:nonzero;fill:rgb(89.411765%,89.411765%,89.411765%);fill-opacity:1;" d="M 23.3125 24.164062 L 22.015625 23.246094 C 22.015625 23.246094 19.046875 23.074219 18.613281 25.515625 L 13.171875 34.472656 L 19.921875 43.789062 L 23.191406 40.34375 L 19.0625 35.515625 L 22.53125 29.148438 Z M 23.3125 24.164062 "/>
<path style=" stroke:none;fill-rule:nonzero;fill:rgb(24.705882%,23.921569%,33.72549%);fill-opacity:1;" d="M 54.917969 25.585938 L 54.851562 25.585938 L 54.851562 23.71875 C 54.851562 23.121094 54.367188 22.640625 53.769531 22.640625 L 49.820312 22.640625 C 49.226562 22.640625 48.742188 23.121094 48.742188 23.71875 L 48.742188 33.953125 C 48.742188 34.550781 49.226562 35.035156 49.820312 35.035156 L 53.769531 35.035156 C 54.367188 35.035156 54.851562 34.550781 54.851562 33.953125 L 54.851562 26.914062 L 54.917969 26.914062 Z M 54.917969 25.585938 "/>
<path style=" stroke:none;fill-rule:nonzero;fill:rgb(96.078431%,0%,34.117647%);fill-opacity:1;" d="M 53.8125 22.921875 L 53.296875 22.921875 C 53.347656 23.039062 53.332031 23.171875 53.261719 23.277344 C 53.191406 23.382812 53.070312 23.449219 52.945312 23.449219 L 50.679688 23.449219 C 50.554688 23.449219 50.433594 23.382812 50.363281 23.277344 C 50.292969 23.171875 50.277344 23.039062 50.328125 22.921875 L 49.84375 22.921875 C 49.398438 22.921875 49.039062 23.28125 49.039062 23.726562 L 49.039062 33.949219 C 49.039062 34.394531 49.398438 34.753906 49.84375 34.753906 L 53.8125 34.753906 C 54.257812 34.753906 54.621094 34.394531 54.621094 33.949219 L 54.621094 23.726562 C 54.621094 23.28125 54.257812 22.921875 53.8125 22.921875 Z M 53.8125 22.921875 "/>
<path style=" stroke:none;fill-rule:nonzero;fill:rgb(100%,100%,100%);fill-opacity:1;" d="M 89.445312 19.28125 L 60.476562 19.28125 C 60.105469 19.28125 59.804688 18.976562 59.804688 18.605469 L 59.804688 0.675781 C 59.804688 0.300781 60.105469 0 60.476562 0 L 89.445312 0 C 89.816406 0 90.117188 0.300781 90.117188 0.675781 L 90.117188 18.605469 C 90.117188 18.976562 89.816406 19.28125 89.445312 19.28125 Z M 89.445312 19.28125 "/>
<path style=" stroke:none;fill-rule:nonzero;fill:rgb(24.705882%,23.921569%,33.72549%);fill-opacity:1;" d="M 89.445312 19.28125 L 60.476562 19.28125 C 60.105469 19.28125 59.804688 18.976562 59.804688 18.605469 L 59.804688 0.675781 C 59.804688 0.300781 60.105469 0 60.476562 0 L 89.445312 0 C 89.816406 0 90.117188 0.300781 90.117188 0.675781 L 90.117188 18.605469 C 90.117188 18.976562 89.816406 19.28125 89.445312 19.28125 Z M 60.476562 0.269531 C 60.253906 0.269531 60.074219 0.449219 60.074219 0.675781 L 60.074219 18.605469 C 60.074219 18.828125 60.253906 19.011719 60.476562 19.011719 L 89.445312 19.011719 C 89.667969 19.011719 89.847656 18.828125 89.847656 18.605469 L 89.847656 0.675781 C 89.847656 0.449219 89.667969 0.269531 89.445312 0.269531 Z M 60.476562 0.269531 "/>
<path style=" stroke:none;fill-rule:nonzero;fill:rgb(80%,80%,80%);fill-opacity:1;" d="M 83.71875 5.988281 L 66.203125 5.988281 C 65.867188 5.988281 65.597656 5.71875 65.597656 5.382812 C 65.597656 5.046875 65.867188 4.773438 66.203125 4.773438 L 83.71875 4.773438 C 84.050781 4.773438 84.324219 5.046875 84.324219 5.382812 C 84.324219 5.71875 84.050781 5.988281 83.71875 5.988281 Z M 83.71875 5.988281 "/>
<path style=" stroke:none;fill-rule:nonzero;fill:rgb(80%,80%,80%);fill-opacity:1;" d="M 83.71875 10.167969 L 66.203125 10.167969 C 65.867188 10.167969 65.597656 9.898438 65.597656 9.5625 C 65.597656 9.226562 65.867188 8.953125 66.203125 8.953125 L 83.71875 8.953125 C 84.050781 8.953125 84.324219 9.226562 84.324219 9.5625 C 84.324219 9.898438 84.050781 10.167969 83.71875 10.167969 Z M 83.71875 10.167969 "/>
<path style=" stroke:none;fill-rule:nonzero;fill:rgb(96.078431%,0%,34.117647%);fill-opacity:1;" d="M 84.324219 14.628906 C 84.324219 15.824219 83.355469 16.796875 82.15625 16.796875 C 80.960938 16.796875 79.992188 15.824219 79.992188 14.628906 C 79.992188 13.429688 80.960938 12.457031 82.15625 12.457031 C 83.355469 12.457031 84.324219 13.429688 84.324219 14.628906 Z M 84.324219 14.628906 "/>
<path style=" stroke:none;fill-rule:nonzero;fill:rgb(100%,100%,100%);fill-opacity:1;" d="M 82.21875 13.605469 L 82.21875 13.398438 L 82.277344 13.398438 L 82.277344 13.605469 C 82.363281 13.609375 82.449219 13.628906 82.527344 13.667969 C 82.585938 13.695312 82.632812 13.734375 82.671875 13.785156 C 82.703125 13.832031 82.722656 13.890625 82.722656 13.949219 C 82.722656 13.992188 82.710938 14.03125 82.683594 14.066406 C 82.660156 14.09375 82.621094 14.113281 82.582031 14.113281 C 82.554688 14.113281 82.527344 14.101562 82.507812 14.082031 C 82.488281 14.0625 82.476562 14.03125 82.476562 14.003906 C 82.476562 13.984375 82.480469 13.964844 82.488281 13.945312 L 82.511719 13.894531 C 82.523438 13.871094 82.527344 13.847656 82.523438 13.824219 C 82.527344 13.789062 82.515625 13.753906 82.492188 13.726562 C 82.46875 13.695312 82.4375 13.671875 82.398438 13.660156 C 82.359375 13.648438 82.320312 13.640625 82.277344 13.636719 L 82.277344 14.378906 L 82.292969 14.386719 C 82.417969 14.457031 82.535156 14.542969 82.636719 14.648438 C 82.679688 14.699219 82.714844 14.761719 82.738281 14.824219 C 82.761719 14.886719 82.777344 14.953125 82.777344 15.019531 C 82.777344 15.105469 82.753906 15.191406 82.710938 15.265625 C 82.667969 15.335938 82.605469 15.398438 82.53125 15.433594 C 82.453125 15.472656 82.367188 15.5 82.277344 15.507812 L 82.277344 15.730469 L 82.21875 15.730469 L 82.21875 15.511719 C 82.128906 15.511719 82.039062 15.492188 81.957031 15.460938 C 81.878906 15.429688 81.804688 15.378906 81.75 15.308594 C 81.703125 15.25 81.675781 15.175781 81.675781 15.097656 C 81.675781 15.042969 81.691406 14.988281 81.722656 14.945312 C 81.75 14.90625 81.792969 14.882812 81.839844 14.882812 C 81.867188 14.882812 81.894531 14.894531 81.914062 14.914062 C 81.933594 14.933594 81.945312 14.957031 81.941406 14.984375 C 81.9375 15.027344 81.921875 15.066406 81.890625 15.097656 C 81.878906 15.117188 81.863281 15.140625 81.855469 15.160156 C 81.847656 15.179688 81.84375 15.195312 81.84375 15.214844 C 81.84375 15.265625 81.863281 15.3125 81.894531 15.351562 C 81.925781 15.394531 81.972656 15.429688 82.023438 15.449219 C 82.082031 15.472656 82.144531 15.484375 82.207031 15.480469 L 82.21875 15.480469 L 82.21875 14.59375 L 82.140625 14.550781 C 82.066406 14.507812 82.011719 14.472656 81.972656 14.441406 C 81.933594 14.414062 81.898438 14.382812 81.867188 14.351562 C 81.789062 14.265625 81.746094 14.15625 81.746094 14.042969 C 81.746094 13.972656 81.765625 13.902344 81.796875 13.839844 C 81.832031 13.777344 81.882812 13.726562 81.941406 13.6875 C 82.023438 13.636719 82.121094 13.609375 82.21875 13.605469 Z M 82.21875 13.636719 C 82.164062 13.636719 82.113281 13.648438 82.0625 13.667969 C 82.015625 13.695312 81.976562 13.730469 81.949219 13.78125 C 81.921875 13.832031 81.90625 13.890625 81.90625 13.949219 C 81.90625 14.019531 81.929688 14.09375 81.972656 14.152344 C 81.992188 14.183594 82.019531 14.210938 82.050781 14.238281 C 82.097656 14.273438 82.148438 14.304688 82.203125 14.335938 L 82.21875 14.34375 Z M 82.277344 15.476562 C 82.3125 15.476562 82.347656 15.46875 82.378906 15.457031 C 82.40625 15.445312 82.433594 15.429688 82.457031 15.414062 C 82.496094 15.378906 82.53125 15.332031 82.550781 15.28125 C 82.574219 15.222656 82.585938 15.164062 82.585938 15.101562 C 82.574219 14.902344 82.457031 14.722656 82.277344 14.632812 Z M 82.277344 15.476562 "/>
<path style=" stroke:none;fill-rule:nonzero;fill:rgb(79.215686%,79.215686%,79.215686%);fill-opacity:1;" d="M 59.117188 81.070312 L 0.15625 81.070312 C 0.0703125 81.070312 0 81 0 80.914062 C 0 80.828125 0.0703125 80.757812 0.15625 80.757812 L 59.117188 80.757812 C 59.203125 80.757812 59.273438 80.828125 59.273438 80.914062 C 59.273438 81 59.203125 81.070312 59.117188 81.070312 Z M 59.117188 81.070312 "/>
</g>
</svg>
